<?xml version="1.0" standalone="no"?>
<!DOCTYPE svg PUBLIC "-//W3C//DTD SVG 20010904//EN"
 "http://www.w3.org/TR/2001/REC-SVG-20010904/DTD/svg10.dtd">
<svg version="1.0" xmlns="http://www.w3.org/2000/svg"
 width="700.000000pt" height="700.000000pt" viewBox="0 0 700.000000 700.000000"
 preserveAspectRatio="xMidYMid meet">
<metadata>
Created by potrace 1.11, written by Peter Selinger 2001-2013
</metadata>
<g transform="translate(0.000000,700.000000) scale(0.100000,-0.100000)"
fill="#000000" stroke="none">
<path d="M3497 6864 c-1 -1 -33 -5 -70 -8 -208 -19 -415 -95 -1047 -383 -30
-14 -98 -44 -150 -68 -52 -24 -138 -63 -190 -88 -52 -24 -115 -54 -140 -65
-25 -11 -107 -50 -184 -86 -76 -36 -139 -66 -141 -66 -1 0 -76 -35 -166 -79
-90 -43 -216 -103 -279 -134 -446 -214 -649 -318 -680 -348 -134 -135 -99
-397 64 -473 63 -29 214 -100 301 -141 50 -23 115 -54 145 -68 30 -13 100 -46
155 -72 143 -68 281 -133 345 -162 30 -14 115 -54 189 -89 73 -35 135 -64 137
-64 1 0 69 -32 151 -71 81 -39 166 -79 188 -89 22 -10 117 -54 210 -98 94 -44
204 -96 245 -115 41 -19 158 -74 260 -122 102 -48 212 -97 245 -109 225 -86
508 -103 745 -46 83 20 245 75 265 90 6 4 21 11 35 15 30 9 508 216 635 275
50 23 106 49 125 58 19 8 78 35 130 60 52 24 115 53 140 64 25 12 110 52 189
89 79 38 144 69 146 69 2 0 83 39 181 86 99 47 204 98 234 111 30 14 204 98
385 187 352 173 366 182 409 276 14 31 21 69 22 121 2 66 -2 84 -27 137 -35
72 -76 107 -180 156 -41 18 -153 71 -249 116 -285 134 -342 161 -405 190 -33
15 -107 50 -165 77 -58 28 -126 60 -152 72 -26 11 -108 50 -183 86 -75 36
-138 65 -140 65 -2 0 -59 26 -127 59 -116 55 -157 75 -353 166 -44 21 -190 89
-325 152 -135 64 -273 128 -307 144 -72 34 -219 83 -283 95 -25 4 -47 8 -50 9
-37 10 -275 26 -283 19z"/>
<path d="M765 3916 c-148 -73 -285 -145 -303 -160 -111 -95 -128 -283 -36
-409 30 -42 50 -55 177 -116 78 -38 165 -79 192 -91 28 -13 110 -51 183 -86
74 -35 135 -64 137 -64 2 0 54 -24 116 -54 63 -30 184 -86 269 -126 289 -135
315 -147 433 -204 65 -31 120 -56 121 -56 2 0 68 -31 147 -68 79 -38 162 -77
184 -87 22 -10 105 -49 184 -87 79 -37 145 -68 146 -68 2 0 74 -34 161 -76
265 -127 412 -165 634 -168 119 -1 224 6 270 19 8 2 26 6 40 9 81 14 413 141
618 237 34 16 64 29 66 29 3 0 33 13 68 29 35 16 86 39 113 51 28 13 82 37
120 55 39 18 97 44 130 60 33 15 102 47 153 71 51 24 95 44 97 44 2 0 71 32
152 71 81 39 175 84 208 99 33 15 121 57 195 93 74 35 185 88 245 117 488 233
631 308 667 348 56 63 71 104 72 202 1 69 -4 94 -22 131 -44 90 -69 107 -377
249 -38 18 -116 55 -173 82 -71 33 -110 47 -124 42 -12 -3 -91 -40 -177 -81
-86 -41 -199 -95 -251 -120 -52 -25 -135 -65 -185 -88 -49 -24 -121 -57 -160
-75 -38 -18 -106 -49 -150 -70 -76 -36 -346 -159 -565 -258 -85 -38 -400 -172
-405 -172 -2 0 -28 -11 -57 -24 -165 -75 -329 -110 -523 -111 -178 0 -228 5
-359 40 -93 24 -122 35 -241 90 -27 13 -79 37 -115 53 -114 52 -232 108 -340
160 -58 27 -139 66 -180 85 -123 57 -218 102 -344 161 -65 31 -119 56 -121 56
-1 0 -63 29 -136 64 -139 66 -244 115 -364 171 -38 18 -119 56 -178 84 -59 28
-116 51 -125 50 -9 0 -138 -60 -287 -133z"/>
<path d="M750 2112 l-295 -147 -37 -55 c-41 -62 -50 -95 -49 -189 1 -122 62
-205 196 -266 38 -18 132 -62 208 -99 77 -36 140 -66 142 -66 2 0 61 -27 131
-61 70 -33 159 -75 198 -93 92 -43 203 -95 401 -188 282 -133 319 -150 380
-178 33 -15 110 -51 170 -80 61 -29 175 -83 255 -120 80 -37 190 -89 245 -115
383 -180 466 -212 605 -235 41 -6 86 -13 100 -16 91 -15 319 1 450 31 118 28
618 237 1014 424 59 28 109 51 111 51 2 0 46 20 97 44 51 24 154 72 228 106
74 35 200 94 280 133 80 38 174 83 210 99 59 28 143 69 640 311 91 44 182 93
202 109 21 16 49 54 65 86 55 111 31 273 -50 349 -34 32 -62 48 -202 113 -49
23 -161 76 -247 116 l-158 74 -102 -49 c-57 -27 -170 -81 -253 -121 -217 -105
-400 -191 -550 -260 -33 -15 -89 -41 -125 -57 -36 -17 -92 -43 -125 -58 -394
-181 -809 -359 -943 -404 -202 -68 -465 -84 -667 -40 -142 31 -204 55 -500
194 -119 56 -209 99 -410 192 -142 67 -201 94 -425 200 -91 43 -142 67 -282
132 -35 16 -106 49 -158 74 -310 146 -442 207 -448 207 -4 0 -140 -67 -302
-148z"/>
</g>
</svg>
